<svg width="207" height="71" viewBox="0 0 207 71" fill="none" xmlns="http://www.w3.org/2000/svg">
<path d="M60.5801 39.1249C60.5801 46.5178 57.5524 53.608 52.1631 58.8356C46.7737 64.0632 39.4642 67 31.8425 67C24.2209 67 16.9114 64.0632 11.522 58.8356C6.13268 53.608 3.10498 46.5178 3.10498 39.1249C3.10498 32.1304 6.19115 24.0702 12.2791 15.1693C12.4608 14.9037 12.6946 14.6754 12.9673 14.4976C13.24 14.3197 13.5461 14.1958 13.8682 14.1329C14.1903 14.0699 14.5221 14.0693 14.8445 14.1308C15.1669 14.1924 15.4735 14.3151 15.747 14.4918L25.8289 21.0115L35.4654 1.38199C35.6372 1.03177 35.8932 0.726677 36.2118 0.492341C36.5305 0.258005 36.9025 0.101271 37.2965 0.0353068C37.6905 -0.0306569 38.0951 -0.00392323 38.4763 0.113261C38.8575 0.230446 39.2041 0.434659 39.4871 0.708742C44.0926 5.16815 49.3512 10.5777 53.4354 16.8863C58.2427 24.3126 60.5798 31.5868 60.5798 39.1246L60.5801 39.1249Z" fill="#00EDDF"/>
<path d="M31.8425 67C39.4642 67 46.7737 64.0632 52.1631 58.8356C46.1983 41.2852 40.5332 32.9391 25.8289 21.0115L15.747 14.4918C15.4735 14.3151 15.1669 14.1924 14.8445 14.1308C14.5221 14.0692 14.1903 14.0699 13.8682 14.1329C13.5461 14.1958 13.24 14.3197 12.9673 14.4976C12.6946 14.6754 12.4608 14.9036 12.2791 15.1692C6.19115 24.0702 3.10498 32.1303 3.10498 39.1249C3.10498 46.5178 6.13268 53.608 11.522 58.8356C16.9114 64.0632 24.2209 67 31.8425 67Z" fill="#51A6E3"/>
<path d="M91.0781 43.9766V56H84.0469V21.875H97.3594C99.9219 21.875 102.172 22.3438 104.109 23.2812C106.062 24.2188 107.562 25.5547 108.609 27.2891C109.656 29.0078 110.18 30.9688 110.18 33.1719C110.18 36.5156 109.031 39.1562 106.734 41.0938C104.453 43.0156 101.289 43.9766 97.2422 43.9766H91.0781ZM91.0781 38.2812H97.3594C99.2188 38.2812 100.633 37.8438 101.602 36.9688C102.586 36.0938 103.078 34.8438 103.078 33.2188C103.078 31.5469 102.586 30.1953 101.602 29.1641C100.617 28.1328 99.2578 27.6016 97.5234 27.5703H91.0781V38.2812ZM131.4 56C131.088 55.3906 130.861 54.6328 130.72 53.7266C129.08 55.5547 126.947 56.4688 124.322 56.4688C121.838 56.4688 119.775 55.75 118.134 54.3125C116.509 52.875 115.697 51.0625 115.697 48.875C115.697 46.1875 116.689 44.125 118.673 42.6875C120.673 41.25 123.556 40.5234 127.322 40.5078H130.439V39.0547C130.439 37.8828 130.134 36.9453 129.525 36.2422C128.931 35.5391 127.986 35.1875 126.689 35.1875C125.548 35.1875 124.65 35.4609 123.994 36.0078C123.353 36.5547 123.033 37.3047 123.033 38.2578H116.259C116.259 36.7891 116.713 35.4297 117.619 34.1797C118.525 32.9297 119.806 31.9531 121.463 31.25C123.119 30.5312 124.978 30.1719 127.041 30.1719C130.166 30.1719 132.642 30.9609 134.47 32.5391C136.314 34.1016 137.236 36.3047 137.236 39.1484V50.1406C137.252 52.5469 137.588 54.3672 138.244 55.6016V56H131.4ZM125.798 51.2891C126.798 51.2891 127.72 51.0703 128.564 50.6328C129.408 50.1797 130.033 49.5781 130.439 48.8281V44.4688H127.908C124.517 44.4688 122.713 45.6406 122.494 47.9844L122.47 48.3828C122.47 49.2266 122.767 49.9219 123.361 50.4688C123.955 51.0156 124.767 51.2891 125.798 51.2891ZM153.933 46.4141L158.62 30.6406H165.886L155.691 59.9375L155.128 61.2734C153.612 64.5859 151.112 66.2422 147.628 66.2422C146.644 66.2422 145.644 66.0938 144.628 65.7969V60.6641L145.659 60.6875C146.941 60.6875 147.894 60.4922 148.519 60.1016C149.159 59.7109 149.659 59.0625 150.019 58.1562L150.816 56.0703L141.933 30.6406H149.222L153.933 46.4141ZM196.177 21.875V45.1719C196.161 47.4688 195.653 49.4688 194.653 51.1719C193.653 52.875 192.239 54.1875 190.411 55.1094C188.598 56.0156 186.512 56.4688 184.153 56.4688C180.559 56.4688 177.677 55.4922 175.505 53.5391C173.348 51.5703 172.231 48.8516 172.153 45.3828V21.875H175.012V44.9609C175.012 47.8359 175.833 50.0703 177.473 51.6641C179.114 53.2422 181.341 54.0312 184.153 54.0312C186.966 54.0312 189.184 53.2344 190.809 51.6406C192.45 50.0469 193.27 47.8281 193.27 44.9844V21.875H196.177Z" fill="#D0D0D0"/>
</svg>
