<svg width="29" height="35" viewBox="0 0 29 35" fill="none" xmlns="http://www.w3.org/2000/svg">
<path d="M29 20.4074C29 24.2286 27.488 27.8933 24.7966 30.5953C22.1052 33.2973 18.4549 34.8152 14.6487 34.8152C10.8424 34.8152 7.19212 33.2973 4.50072 30.5953C1.80932 27.8933 0.297302 24.2286 0.297302 20.4074C0.297302 16.7921 1.83851 12.626 4.87881 8.02538C4.96952 7.8881 5.08629 7.77012 5.22247 7.6782C5.35864 7.58628 5.51153 7.52223 5.67239 7.4897C5.83325 7.45718 5.99892 7.45682 6.15992 7.48865C6.32092 7.52048 6.47408 7.58388 6.61065 7.67521L11.6455 11.0451L16.4579 0.899125C16.5437 0.718108 16.6715 0.560414 16.8307 0.439292C16.9898 0.31817 17.1755 0.237158 17.3723 0.203064C17.5691 0.168969 17.7712 0.182787 17.9615 0.243356C18.1519 0.303926 18.325 0.409478 18.4663 0.551144C20.7662 2.85609 23.3924 5.65215 25.432 8.91287C27.8327 12.7513 28.9998 16.5111 28.9998 20.4072L29 20.4074Z" fill="#00EDDF"/>
<path d="M14.6487 34.8152C18.4549 34.8152 22.1052 33.2973 24.7966 30.5953C21.8178 21.524 18.9887 17.2101 11.6455 11.0451L6.61065 7.6752C6.47408 7.58386 6.32092 7.52047 6.15992 7.48864C5.99892 7.45681 5.83325 7.45716 5.67239 7.48969C5.51153 7.52222 5.35864 7.58627 5.22247 7.67819C5.08629 7.77011 4.96952 7.88809 4.87881 8.02537C1.83851 12.626 0.297302 16.7921 0.297302 20.4074C0.297302 24.2286 1.80932 27.8933 4.50072 30.5953C7.19212 33.2973 10.8424 34.8152 14.6487 34.8152Z" fill="#51A6E3"/>
</svg>
